<svg width="24" height="24" viewBox="0 0 24 24" fill="none" xmlns="http://www.w3.org/2000/svg">
<path d="M0.483643 23.5161L2.16078 17.3666C1.26631 15.6895 0.707275 13.7887 0.707275 11.888C0.707275 5.62664 5.85049 0.483398 12.1118 0.483398C18.3731 0.483398 23.5164 5.62664 23.5164 11.888C23.5164 18.1493 18.3731 23.2925 12.1118 23.2925C10.2111 23.2925 8.42211 22.8453 6.74497 21.9508L0.483643 23.5161ZM6.96857 19.6028L7.30402 19.8264C8.75754 20.7209 10.3229 21.1681 12 21.1681C17.0314 21.1681 21.1684 17.0312 21.1684 11.9998C21.1684 6.96836 17.0314 2.8314 12 2.8314C6.96857 2.8314 2.83165 6.96836 2.83165 11.9998C2.83165 13.6769 3.27886 15.3541 4.17334 16.8076L4.39697 17.2548L3.50251 20.7209L6.96857 19.6028Z" fill="#163152"/>
<path fill-rule="evenodd" clip-rule="evenodd" d="M16.2484 13.4548C15.8012 13.1194 15.1303 12.8957 14.5713 13.1194C14.124 13.343 13.9004 13.902 13.565 14.2375C13.4532 14.4611 13.2296 14.4611 13.006 14.3493C11.4406 13.6784 10.2107 12.6721 9.31623 11.2186C9.20442 10.995 9.20443 10.7713 9.42805 10.5477C9.65167 10.2123 9.9871 9.87687 10.0989 9.42964C10.2107 8.9824 9.98708 8.53519 9.76346 8.19976C9.53984 7.75252 9.31624 7.08165 8.869 6.74622C8.42176 6.5226 7.86273 6.63442 7.41549 6.96985C6.74464 7.5289 6.40918 8.42337 6.40918 9.20604C6.40918 9.42966 6.40919 9.65328 6.521 9.8769C6.63281 10.4359 6.96824 10.995 7.19186 11.4422C7.41548 11.7777 7.6391 12.2249 7.86272 12.5603C8.7572 13.6784 9.76347 14.6847 10.9934 15.4674C11.5524 15.8028 12.2233 16.1382 12.8941 16.3618C13.6768 16.5855 14.3477 16.9209 15.1303 16.6972C16.0248 16.5854 16.8075 16.0264 17.1429 15.1319C17.2547 14.9083 17.2547 14.5729 17.2547 14.3493C17.3665 14.0138 16.6957 13.7902 16.2484 13.4548Z" fill="#163152"/>
</svg>
